<svg width="115" height="29" viewBox="0 0 115 29" xmlns="http://www.w3.org/2000/svg" xmlns:xlink="http://www.w3.org/1999/xlink"><title>Logo</title><defs><circle id="a" cx="13" cy="13" r="9"/></defs><g fill="none" fill-rule="evenodd"><path d="M41.18 6.42c.624.317 1.113.76 1.467 1.33.354.57.53 1.216.53 1.936 0 .588-.158 1.116-.476 1.584-.317.468-.752.846-1.304 1.134.816.192 1.458.576 1.926 1.152.468.576.702 1.308.702 2.196 0 .816-.195 1.548-.585 2.196-.39.648-.937 1.152-1.64 1.512-.7.36-1.496.54-2.384.54h-4.68c-.264 0-.486-.09-.666-.27-.18-.18-.27-.402-.27-.666V6.878c0-.276.09-.5.27-.675.18-.174.402-.26.666-.26h4.302c.804 0 1.518.158 2.142.476zm-.44 4.778c.425-.348.638-.852.638-1.512s-.213-1.16-.64-1.503c-.425-.342-.992-.513-1.7-.513h-3.366v4.05h3.366c.708 0 1.275-.174 1.7-.522zm.71 6.417c.516-.438.774-1.06.774-1.863 0-.744-.255-1.314-.765-1.71-.51-.396-1.192-.594-2.044-.594h-3.744v4.824h3.744c.84 0 1.518-.22 2.034-.657zm5.625-7.21c.174-.167.393-.25.657-.25.276 0 .498.083.666.25.168.17.252.39.252.667v8.01c0 .264-.084.483-.252.657-.168.173-.39.26-.666.26-.264 0-.483-.087-.657-.26-.174-.175-.26-.394-.26-.658v-8.01c0-.276.086-.498.26-.666zm1.494-3.878c.233.234.35.513.35.837 0 .324-.117.603-.35.837-.235.235-.514.352-.838.352-.324 0-.603-.117-.837-.35-.234-.235-.35-.514-.35-.838 0-.324.116-.603.35-.837.234-.234.513-.35.837-.35.324 0 .603.116.837.35zm12.662-.333c.168.168.252.39.252.666v8.208c0 .936-.22 1.785-.657 2.547-.438.762-1.032 1.362-1.782 1.8-.75.438-1.587.657-2.51.657-.925 0-1.768-.22-2.53-.657-.762-.438-1.36-1.038-1.79-1.8-.433-.762-.65-1.61-.65-2.547 0-.936.202-1.785.604-2.547.4-.76.953-1.358 1.655-1.79.702-.432 1.485-.648 2.35-.648.695 0 1.343.144 1.943.432.6.288 1.11.69 1.53 1.206V6.86c0-.276.087-.498.26-.666.175-.168.394-.252.658-.252.276 0 .498.084.666.252zm-3.07 11.817c.487-.293.868-.698 1.144-1.214.276-.516.414-1.092.414-1.728 0-.636-.138-1.21-.414-1.72-.276-.51-.657-.91-1.143-1.205-.486-.294-1.03-.44-1.63-.44-.6 0-1.142.146-1.628.44-.486.294-.87.696-1.152 1.206-.282.51-.423 1.082-.423 1.718 0 .636.14 1.212.423 1.728.282.516.666.92 1.152 1.215.486.295 1.03.442 1.63.442.6 0 1.142-.147 1.628-.44zm15.166-2.52c-.156.15-.354.226-.594.226h-6.84c.132.84.513 1.518 1.143 2.034.63.516 1.4.774 2.313.774.36 0 .735-.066 1.125-.198s.71-.294.963-.486c.168-.132.366-.198.594-.198.228 0 .408.06.54.18.216.18.324.384.324.612 0 .216-.096.396-.288.54-.408.324-.915.588-1.52.792-.607.204-1.186.306-1.738.306-.984 0-1.866-.213-2.646-.64-.78-.425-1.39-1.016-1.827-1.772-.438-.756-.657-1.614-.657-2.574 0-.96.207-1.82.62-2.583.415-.762.99-1.356 1.73-1.782.737-.425 1.574-.638 2.51-.638.924 0 1.722.204 2.394.612.672.408 1.188.978 1.548 1.71.36.732.54 1.572.54 2.52 0 .228-.078.417-.234.567zm-6.38-3.14c-.547.48-.892 1.122-1.036 1.926h5.994c-.108-.804-.408-1.446-.9-1.926-.492-.48-1.134-.72-1.926-.72-.876 0-1.587.24-2.133.72zM78.53 8.264c-.408.444-.612 1.032-.612 1.764v.486h1.836c.252 0 .456.072.612.216.156.144.234.336.234.576 0 .216-.078.396-.234.54-.156.144-.36.216-.612.216h-1.836v7.02c0 .276-.084.498-.252.666-.168.168-.402.252-.702.252-.24 0-.447-.084-.62-.252-.175-.168-.262-.39-.262-.666v-7.02h-.774c-.252 0-.456-.072-.612-.216-.156-.144-.234-.324-.234-.54 0-.24.078-.432.234-.576.156-.144.36-.216.612-.216h.774v-.306c0-.852.17-1.6.513-2.24.342-.643.822-1.14 1.44-1.495.618-.354 1.323-.53 2.115-.53.264 0 .483.077.657.233.174.156.26.354.26.594s-.086.438-.26.594c-.174.156-.393.234-.657.234-.672 0-1.212.222-1.62.666zm10.63 2.457c.75.427 1.337 1.018 1.763 1.774.426.756.64 1.62.64 2.592 0 .96-.21 1.818-.63 2.574-.42.756-1.006 1.347-1.756 1.773-.75.426-1.605.64-2.565.64s-1.818-.214-2.574-.64c-.756-.426-1.344-1.017-1.764-1.773-.42-.756-.63-1.614-.63-2.574 0-.972.21-1.836.63-2.592.42-.756 1.008-1.347 1.764-1.773.756-.425 1.614-.638 2.574-.638.948 0 1.797.213 2.547.64zm-4.195 1.414c-.486.288-.867.69-1.143 1.206s-.414 1.098-.414 1.746c0 .648.138 1.227.414 1.737.276.51.657.91 1.143 1.197.486.288 1.035.432 1.647.432.612 0 1.16-.144 1.647-.432.485-.288.863-.687 1.133-1.197s.405-1.09.405-1.737c0-.648-.135-1.23-.405-1.746s-.648-.918-1.134-1.206c-.487-.288-1.036-.432-1.648-.432-.612 0-1.16.144-1.647.432zm15.65-1.8c.36.192.54.432.54.72 0 .084-.005.144-.017.18-.108.384-.348.576-.72.576-.06 0-.15-.012-.27-.036-.48-.084-.87-.126-1.17-.126-.864 0-1.56.198-2.088.594-.528.396-.792.93-.792 1.602V19.1c0 .288-.075.51-.225.666-.15.156-.375.234-.675.234-.288 0-.51-.075-.666-.225-.156-.15-.234-.375-.234-.675v-8.046c0-.288.078-.51.234-.666.156-.156.378-.234.666-.234.6 0 .9.3.9.9v.342c.36-.42.804-.75 1.332-.99s1.092-.36 1.692-.36c.636 0 1.134.096 1.494.288zm10.873-4.14c.168.168.252.39.252.666v8.208c0 .936-.22 1.785-.657 2.547-.438.762-1.032 1.362-1.782 1.8-.75.438-1.586.657-2.51.657-.924 0-1.767-.22-2.53-.657-.76-.438-1.358-1.038-1.79-1.8-.432-.762-.648-1.61-.648-2.547 0-.936.2-1.785.603-2.547.402-.76.954-1.358 1.656-1.79.703-.432 1.486-.648 2.35-.648.696 0 1.344.144 1.944.432.6.288 1.11.69 1.53 1.206V6.86c0-.276.087-.498.26-.666.175-.168.394-.252.658-.252.276 0 .498.084.666.252zm-3.07 11.817c.487-.293.868-.698 1.144-1.214.276-.516.414-1.092.414-1.728 0-.636-.138-1.21-.414-1.72-.276-.51-.657-.91-1.143-1.205-.487-.294-1.03-.44-1.63-.44-.6 0-1.143.146-1.63.44-.485.294-.87.696-1.15 1.206-.283.51-.424 1.082-.424 1.718 0 .636.14 1.212.423 1.728.28.516.665.92 1.15 1.215.487.295 1.03.442 1.63.442.6 0 1.143-.147 1.63-.44z" fill="#FFF"/><use fill-opacity=".855" fill="#FFF" xlink:href="#a"/><circle stroke-opacity=".59" stroke="#FFF" stroke-width="4" cx="13" cy="13" r="11"/><use stroke="#C94E5D" stroke-width="5" xlink:href="#a"/><use stroke-opacity=".445" stroke="#F7E5E7" stroke-width="2" xlink:href="#a"/></g></svg>